<svg xmlns="http://www.w3.org/2000/svg" version="1.1" xmlns:xlink="http://www.w3.org/1999/xlink" xmlns:svgjs="http://svgjs.dev/svgjs" width="2000" height="2000" viewBox="0 0 2000 2000"><g transform="matrix(1,0,0,1,-0.28443113772425477,-0.28443113772459583)"><svg viewBox="0 0 334 334" data-background-color="#ffffff" preserveAspectRatio="xMidYMid meet" height="2000" width="2000" xmlns="http://www.w3.org/2000/svg" xmlns:xlink="http://www.w3.org/1999/xlink"><g id="tight-bounds" transform="matrix(1,0,0,1,0.04749999999998522,0.04750000000001364)"><svg viewBox="0 0 333.90454557049503 333.90454557049503" height="333.90454557049503" width="333.90454557049503"><g><svg></svg></g><g><svg viewBox="0 0 333.90454557049503 333.90454557049503" height="333.90454557049503" width="333.90454557049503"><g><path d="M0 166.952c0-92.205 74.747-166.952 166.952-166.952 92.205 0 166.952 74.747 166.953 166.952 0 92.205-74.747 166.952-166.953 166.953-92.205 0-166.952-74.747-166.952-166.953zM166.952 323.482c86.449 0 156.53-70.081 156.53-156.53 0-86.449-70.081-156.53-156.53-156.53-86.449 0-156.53 70.081-156.53 156.53 0 86.449 70.081 156.53 156.53 156.53z" data-fill-palette-color="tertiary" fill="#000000" stroke="transparent"></path><ellipse rx="160.27418187383762" ry="160.27418187383762" cx="166.95227278524752" cy="166.95227278524752" fill="#000000" stroke="transparent" stroke-width="0" fill-opacity="1" data-fill-palette-color="tertiary"></ellipse></g><g transform="matrix(1,0,0,1,127.54902499559624,71.17305217166896)"><svg viewBox="0 0 78.80649557930255 191.55844122715712" height="191.55844122715712" width="78.80649557930255"><g><svg viewBox="0 0 78.80649557930255 191.55844122715712" height="191.55844122715712" width="78.80649557930255"><g><svg viewBox="0 0 130.62007126554423 317.50399584040576" height="191.55844122715712" width="78.80649557930255"><g transform="matrix(1,0,0,1,0,125.94555461324867)"><svg viewBox="0 0 130.62007126554423 191.55844122715712" height="191.55844122715712" width="130.62007126554423"><g id="textblocktransform"><svg viewBox="0 0 130.62007126554423 191.55844122715712" height="191.55844122715712" width="130.62007126554423" id="textblock"><g><svg viewBox="0 0 130.62007126554423 191.55844122715712" height="191.55844122715712" width="130.62007126554423"><g transform="matrix(1,0,0,1,0,0)"><svg width="130.62007126554423" viewBox="4.2 -35.45 24.650000000000002 36.150000000000006" height="191.55844122715712" data-palette-color="#ffffff"><path d="M28.85 0.7L28.35 0.7 11.65-18.35 10.1-20.35 10.35-15.5 10.35 0 4.2 0 4.2-35.45 4.75-35.45 21.2-16.25 22.95-13.98 22.7-18.75 22.7-34.85 28.85-34.85 28.85 0.7Z" opacity="1" transform="matrix(1,0,0,1,0,0)" fill="#ffffff" class="wordmark-text-0" data-fill-palette-color="quaternary" id="text-0"></path></svg></g></svg></g></svg></g></svg></g><g transform="matrix(1,0,0,1,24.948433611718947,0)"><svg viewBox="0 0 80.72320404210633 80.72320404210633" height="80.72320404210633" width="80.72320404210633"><g><svg xmlns="http://www.w3.org/2000/svg" xmlns:xlink="http://www.w3.org/1999/xlink" version="1.1" x="0" y="0" viewBox="10.583 10.583 137.234 137.234" enable-background="new 0 0 158.4 158.4" xml:space="preserve" height="80.72320404210633" width="80.72320404210633" class="icon-icon-0" data-fill-palette-color="quaternary" id="icon-0"><path fill="#ffffff" d="M79.2 10.583C41.304 10.583 10.583 41.304 10.583 79.2S41.304 147.817 79.2 147.817 147.817 117.096 147.817 79.2 117.096 10.583 79.2 10.583M79.2 131.17C50.498 131.17 27.23 107.902 27.23 79.2S50.498 27.23 79.2 27.23 131.17 50.498 131.17 79.2 107.902 131.17 79.2 131.17" data-fill-palette-color="quaternary"></path></svg></g></svg></g><g></g></svg></g></svg></g></svg></g></svg></g><defs></defs></svg><rect width="333.90454557049503" height="333.90454557049503" fill="none" stroke="none" visibility="hidden"></rect></g></svg></g></svg>